<?xml version="1.0" standalone="no"?>
<!DOCTYPE svg PUBLIC "-//W3C//DTD SVG 20010904//EN"
 "http://www.w3.org/TR/2001/REC-SVG-20010904/DTD/svg10.dtd">
<svg version="1.0" xmlns="http://www.w3.org/2000/svg"
 width="1280.000000pt" height="729.000000pt" viewBox="0 0 1280.000000 729.000000"
 preserveAspectRatio="xMidYMid meet">

<g transform="translate(0.000000,729.000000) scale(0.100000,-0.100000)"
fill="#000000" stroke="none">
<path d="M3567 5200 c-311 -29 -610 -150 -840 -339 -112 -91 -273 -268 -265
-291 5 -15 134 66 179 112 l39 40 232 2 233 1 -1 -55 c-1 -58 -59 -494 -75
-569 -14 -64 -3 -62 27 5 151 335 445 610 766 717 123 41 218 57 341 57 293 0
517 -89 710 -280 42 -43 77 -75 77 -71 0 17 -115 157 -195 236 -172 173 -403
308 -645 378 -175 51 -408 73 -583 57z"/>
<path d="M4064 4646 c-304 -50 -557 -225 -722 -498 -129 -214 -185 -414 -186
-663 -1 -187 17 -273 91 -422 150 -303 490 -461 879 -408 222 31 384 114 554
285 182 182 304 427 341 682 16 116 7 319 -20 423 -48 185 -167 362 -313 465
-168 118 -410 171 -624 136z m226 -412 c86 -41 143 -101 190 -199 59 -125 73
-257 45 -427 -46 -281 -204 -487 -419 -544 -122 -33 -263 -1 -375 85 -128 97
-200 315 -172 524 37 276 212 508 441 582 29 10 76 14 135 12 76 -2 100 -7
155 -33z"/>
<path d="M4070 4203 c-125 -20 -260 -125 -346 -268 -71 -118 -104 -238 -104
-378 0 -99 14 -167 49 -234 20 -41 52 -63 35 -25 -4 9 -9 65 -12 123 -5 133
17 233 83 366 132 267 390 374 601 247 31 -19 59 -32 61 -30 3 3 -9 24 -25 49
-52 75 -137 128 -237 146 -32 6 -63 10 -69 10 -6 -1 -22 -4 -36 -6z"/>
<path d="M2679 4614 c-55 -56 -110 -87 -354 -194 -126 -55 -256 -113 -289
-128 l-58 -27 5 -40 c6 -50 67 -339 73 -344 4 -4 127 52 327 149 64 32 119 55
121 51 2 -3 -3 -44 -10 -91 -31 -188 -82 -536 -109 -745 -9 -66 -21 -145 -26
-175 -5 -30 -21 -129 -34 -220 -28 -191 -33 -177 74 -210 95 -29 172 -40 288
-40 l101 0 6 28 c3 15 13 88 21 162 15 135 67 537 85 660 9 67 31 227 75 550
14 102 30 217 35 255 20 130 50 358 50 376 0 18 -11 19 -173 19 l-173 0 -35
-36z"/>
<path d="M7373 4205 c-84 -18 -154 -58 -220 -123 -30 -30 -56 -52 -58 -50 -2
1 2 38 8 80 6 43 9 79 6 81 -2 3 -51 1 -109 -4 -58 -4 -151 -8 -207 -8 -57 -1
-103 -4 -103 -8 0 -5 5 -39 11 -78 5 -38 10 -97 10 -130 1 -59 -50 -456 -106
-834 -9 -59 -12 -108 -7 -113 5 -5 100 -7 212 -6 l204 3 13 95 c6 52 17 127
22 165 6 39 16 104 22 145 16 112 39 199 66 253 69 138 213 214 294 156 40
-28 50 -75 39 -179 -20 -182 -31 -265 -41 -309 -6 -25 -11 -85 -12 -132 0 -73
3 -92 22 -123 84 -136 338 -121 509 30 l53 47 -6 56 c-3 31 -8 72 -11 92 l-5
36 -47 -4 c-38 -4 -51 -1 -69 17 -29 26 -29 50 -2 221 26 165 22 315 -9 397
-39 102 -120 181 -222 217 -63 23 -182 28 -257 10z"/>
<path d="M8710 4210 c-173 -14 -319 -79 -440 -200 -129 -127 -190 -286 -190
-492 0 -173 38 -275 140 -372 62 -59 122 -93 226 -127 90 -30 293 -33 394 -5
125 34 226 91 309 175 133 133 184 262 185 466 0 142 -21 226 -82 320 -113
176 -293 253 -542 235z m122 -392 c65 -37 83 -77 82 -183 -1 -101 -14 -142
-66 -201 -64 -73 -157 -93 -238 -51 -81 40 -112 125 -91 240 12 64 28 101 68
147 57 69 169 90 245 48z"/>
<path d="M9885 4214 c-242 -39 -384 -157 -414 -343 -18 -112 13 -205 92 -278
70 -65 110 -81 358 -148 64 -17 109 -48 109 -75 0 -41 -93 -80 -192 -80 -80 0
-220 49 -287 101 l-23 19 -85 -142 c-96 -159 -96 -148 4 -197 171 -85 455
-105 656 -46 219 63 316 177 319 371 1 97 -22 161 -80 222 -58 62 -124 95
-271 138 -127 38 -156 53 -173 90 -10 22 -8 28 15 52 25 25 34 27 105 26 90
-1 158 -24 252 -85 34 -22 64 -38 67 -36 2 3 33 65 69 138 46 93 63 138 57
148 -15 24 -120 72 -212 98 -65 18 -117 25 -211 28 -69 2 -138 1 -155 -1z"/>
<path d="M5655 4192 c-135 -40 -258 -140 -349 -282 -102 -157 -141 -300 -133
-485 6 -146 34 -227 103 -304 84 -94 164 -125 319 -124 118 0 178 19 282 89
71 47 83 52 83 30 0 -25 48 -73 97 -96 60 -29 178 -32 235 -7 21 10 76 51 123
93 l85 76 0 65 c0 81 -11 104 -48 97 -34 -6 -89 27 -102 62 -12 30 -6 99 44
494 19 146 31 268 27 271 -6 7 -237 30 -316 33 l-40 1 -3 -52 c-2 -29 -6 -53
-9 -53 -3 0 -21 13 -39 30 -64 55 -111 73 -209 76 -66 3 -106 -1 -150 -14z
m265 -378 c21 -19 42 -43 45 -53 6 -19 -53 -230 -78 -277 -24 -47 -76 -93
-118 -105 -54 -17 -102 3 -143 60 -28 39 -31 50 -31 120 0 66 4 83 29 125 56
96 147 165 218 166 30 0 47 -8 78 -36z"/>
<path d="M2276 3890 c-54 -27 -105 -55 -114 -62 -13 -11 -14 -35 -8 -158 10
-225 43 -391 108 -538 19 -44 21 -46 28 -22 4 14 12 70 19 125 7 55 23 174 36
265 13 91 31 219 40 285 9 66 18 128 20 138 5 27 -21 20 -129 -33z"/>
<path d="M5077 3107 c-229 -352 -603 -607 -990 -677 -137 -25 -231 -25 -372
-1 -313 53 -582 263 -735 574 -27 55 -51 94 -54 86 -3 -8 -9 -63 -15 -124 -6
-60 -18 -185 -27 -277 l-18 -168 -76 0 c-42 0 -80 -3 -83 -6 -8 -8 103 -93
182 -140 139 -84 335 -161 496 -197 39 -9 132 -22 209 -28 427 -38 857 114
1174 416 112 107 188 201 267 336 58 98 129 264 120 280 -12 19 -25 7 -78 -74z"/>
<path d="M8822 2790 c-49 -26 -75 -58 -92 -117 -37 -122 53 -217 206 -217 96
0 160 31 192 94 43 85 22 170 -55 224 -37 26 -53 30 -125 33 -70 4 -90 1 -126
-17z m198 -55 c79 -41 79 -169 0 -210 -44 -23 -135 -20 -171 6 -33 23 -59 67
-59 99 0 35 28 84 58 102 35 22 132 24 172 3z"/>
<path d="M5680 2635 l0 -165 173 2 172 3 3 28 3 27 -140 0 c-131 0 -140 1
-146 20 -3 11 -4 29 0 40 6 17 17 20 113 22 102 3 107 4 110 25 3 22 0 22
-105 25 l-108 3 0 35 0 35 130 5 130 5 3 28 3 27 -170 0 -171 0 0 -165z"/>
<path d="M6260 2794 c0 -7 125 -246 152 -291 16 -26 26 -33 51 -33 30 0 35 5
77 86 25 48 62 119 82 158 20 39 37 74 38 79 0 12 -57 8 -67 -5 -6 -7 -37 -64
-69 -125 -32 -62 -61 -113 -64 -113 -3 0 -33 56 -68 125 -62 124 -62 125 -97
125 -19 0 -35 -3 -35 -6z"/>
<path d="M6915 2787 c-3 -7 -4 -80 -3 -162 l3 -150 175 0 175 0 0 25 0 25
-140 5 -140 5 0 35 0 35 113 3 c112 3 112 3 112 27 0 25 0 25 -102 25 -57 0
-109 4 -116 9 -8 5 -12 21 -10 37 l3 29 135 5 135 5 0 25 0 25 -168 3 c-131 2
-169 0 -172 -11z"/>
<path d="M7540 2635 l0 -165 30 0 30 0 0 120 c0 66 3 120 6 120 7 0 210 -178
243 -214 17 -18 35 -26 58 -26 l33 0 0 165 0 165 -30 0 -30 0 0 -115 c0 -75
-4 -115 -11 -115 -5 0 -66 52 -135 115 -109 100 -129 115 -159 115 l-35 0 0
-165z"/>
<path d="M8172 2773 c3 -27 5 -28 71 -31 l67 -3 0 -73 c0 -40 3 -101 6 -135 7
-59 8 -61 35 -61 l28 0 3 133 3 132 68 3 c67 3 67 3 67 32 l0 30 -176 0 -175
0 3 -27z"/>
<path d="M9439 2771 c-33 -33 -38 -74 -13 -109 28 -40 66 -52 169 -52 103 0
135 -9 135 -40 0 -33 -33 -40 -179 -40 l-141 0 0 -30 0 -30 150 0 c198 0 230
15 230 108 0 74 -18 84 -171 96 -133 11 -134 11 -134 36 l0 25 143 3 142 3 0
29 0 30 -151 0 -151 0 -29 -29z"/>
</g>
</svg>
